# xmcd CD database file
# Copyright (C) 1997 Ti Kan
#
# Track frame offsets:
#  182
#  9707
#  33300
#  45302
#  76740
#  85560
#  95072
#  108600
#  132885
#  153860
#  166862
#  206017
#  211175
#  218587
#  226172
#  241940
#  255252
#  270287
#  280970
#  318802
#  334062
#
# Disc length: 4798 seconds
#
# Revision: 1
# Processed by: cddbd v1.4b41PL1 Copyright (c) Steve Scherf et al.
# Submitted via: CDWizzard Release:4.32
#
DISCID=0212bc15
DTITLE=Stephen Hough - Ronan O'Hara - Britten: Holiday Diary
DYEAR=1900
DGENRE=
TTITLE0=Holiday Diary, Op. 5 (1934) - I. Early morning bathe
TTITLE1=Holiday Diary, Op. 5 (1934) - II. Sailing
TTITLE2=Holiday Diary, Op. 5 (1934) - III. Funfair
TTITLE3=Holiday Diary, Op. 5 (1934) - IV. Night
TTITLE4=Three Character Pieces (1930) - I. Poco allggro vivace
TTITLE5=Three Character Pieces (1930) - II. Poco andante grazioso
TTITLE6=Three Character Pieces (1930) - III. Poco presto
TTITLE7=Night Piece (Notturno) (1963)
TTITLE8=from Sonatina romantica (1940) - Moderato
TTITLE9=from Sonatina romantica (1940) - Nocturne
TTITLE10=Twelve Variations on a Theme (1931) - Theme - variations 1-12
TTITLE11=Five Walztes (Waltzes) (1923-5, 1969) - I. Rather fast and nervo
TTITLE11=us
TTITLE12=Five Walztes (Waltzes) (1923-5, 1969) - II. Quick, with wit
TTITLE13=Five Walztes (Waltzes) (1923-5, 1969) - III. Dramatic
TTITLE14=Five Walztes (Waltzes) (1923-5, 1969) - IV. Rhythmic - not fast
TTITLE15=Five Walztes (Waltzes) (1923-5, 1969) - V. Variations: Quiet and
TTITLE15=simple
TTITLE16=Two Lullabies for Two Pianos (1936) - Lullaby
TTITLE17=Two Lullabies for Two Pianos (1936) - Lullaby for a retired Colo
TTITLE17=nel
TTITLE18=Mazurka elegiaca, Op. 23, No. 2 (1941)
TTITLE19=Introductions and rondo all burlesca, Op. 23, No. 1 (1940) - Intro
TTITLE19=duction
TTITLE20=Introductions and rondo all burlesca, Op. 23, No. 1 (1940) - Ronda
TTITLE20=alla burlesca
EXTD=
EXTT0=
EXTT1=
EXTT2=
EXTT3=
EXTT4=
EXTT5=
EXTT6=
EXTT7=
EXTT8=
EXTT9=
EXTT10=
EXTT11=
EXTT12=
EXTT13=
EXTT14=
EXTT15=
EXTT16=
EXTT17=
EXTT18=
EXTT19=
EXTT20=
PLAYORDER=
